<?xml version="1.0" standalone="no"?>
<!DOCTYPE svg PUBLIC "-//W3C//DTD SVG 20010904//EN"
 "http://www.w3.org/TR/2001/REC-SVG-20010904/DTD/svg10.dtd">
<svg version="1.0" xmlns="http://www.w3.org/2000/svg"
 width="500.000000pt" height="500.000000pt" viewBox="0 0 500.000000 500.000000"
 preserveAspectRatio="xMidYMid meet">
<metadata>
Created by potrace 1.16, written by Peter Selinger 2001-2019
</metadata>
<g transform="translate(0.000000,500.000000) scale(0.100000,-0.100000)"
fill="#000000" stroke="none">
<path d="M1821 4945 c-33 -57 -48 -70 -96 -78 -37 -6 -63 -16 -94 -36 -13 -8
-33 -16 -45 -18 -11 -2 -29 -4 -39 -6 -10 -1 -22 -8 -26 -16 -6 -9 -11 -10
-15 -2 -11 18 -93 14 -100 -5 -4 -10 -14 -14 -26 -11 -16 4 -20 0 -20 -21 0
-22 -2 -24 -11 -12 -8 12 -10 8 -7 -16 4 -26 0 -33 -24 -42 -18 -6 -28 -7 -28
-1 0 6 -4 7 -10 4 -5 -3 -10 0 -10 8 0 8 -7 20 -15 27 -10 8 -15 9 -15 2 0 -6
-7 -9 -15 -6 -10 4 -21 -6 -33 -32 -22 -48 -83 -134 -95 -134 -5 0 -7 -6 -5
-12 5 -14 -15 -38 -31 -38 -6 0 -11 -6 -11 -13 0 -7 -18 -23 -40 -37 -39 -24
-46 -36 -52 -89 -2 -13 -12 -29 -23 -35 -11 -6 -23 -15 -26 -20 -4 -5 -12 -5
-18 -2 -6 4 -11 2 -11 -5 0 -9 -3 -9 -14 0 -10 8 -16 9 -21 1 -3 -5 -3 -10 0
-10 4 0 -7 -24 -24 -52 -28 -51 -30 -57 -29 -170 1 -65 -2 -121 -6 -125 -4 -4
-4 1 -1 12 3 11 -9 -11 -28 -49 -29 -58 -33 -74 -26 -104 4 -20 6 -38 4 -41
-3 -2 3 -10 12 -16 15 -11 15 -15 3 -30 -13 -15 -12 -19 6 -34 22 -17 42 -57
23 -45 -7 4 -9 -1 -4 -14 3 -12 -1 -36 -9 -54 -10 -20 -17 -68 -18 -125 -2
-51 -7 -93 -12 -93 -5 0 -3 -7 4 -15 11 -13 10 -14 -4 -9 -14 5 -16 1 -11 -27
3 -18 8 -35 10 -38 3 -2 0 -10 -6 -18 -9 -9 -8 -13 0 -13 6 0 11 -15 10 -32 0
-18 2 -44 5 -58 4 -14 9 -41 12 -60 4 -19 11 -40 15 -46 5 -6 7 -19 3 -27 -3
-9 -2 -22 2 -29 5 -7 10 -22 11 -32 2 -11 7 -24 12 -30 5 -6 11 -27 14 -46 3
-19 11 -65 17 -102 12 -64 14 -68 40 -68 41 0 75 -33 108 -104 21 -45 35 -64
47 -63 12 1 22 -10 30 -34 15 -41 19 -159 6 -159 -13 0 -33 -64 -30 -92 4 -35
-11 -88 -25 -88 -7 0 -18 -11 -25 -24 -15 -27 -7 -49 29 -81 17 -15 25 -17 38
-8 9 6 16 15 15 20 -15 82 -5 153 23 153 22 0 44 -30 44 -61 0 -16 9 -55 21
-87 18 -52 32 -122 60 -317 9 -69 5 -135 -9 -135 -4 0 -8 -17 -9 -37 0 -21 -2
-42 -3 -48 -6 -26 1 -76 10 -70 6 3 10 -4 11 -17 1 -39 8 -66 29 -111 17 -35
25 -43 47 -42 23 0 32 -8 55 -55 16 -30 26 -60 24 -67 -3 -6 4 -23 15 -36 10
-14 19 -32 19 -40 0 -7 9 -22 20 -32 11 -10 20 -31 20 -46 0 -19 9 -34 30 -49
16 -11 27 -27 24 -34 -3 -7 2 -16 10 -19 9 -4 16 -15 16 -25 0 -19 65 -84 74
-74 3 2 11 -7 17 -22 7 -14 18 -26 25 -26 8 0 21 -15 30 -32 9 -18 21 -36 26
-39 5 -3 10 -10 10 -15 1 -23 22 -53 44 -63 13 -6 24 -15 24 -21 0 -15 -17
-12 -24 5 -6 16 -26 21 -26 6 0 -19 32 -41 61 -41 16 0 29 -5 29 -11 0 -13 20
-33 42 -42 9 -3 29 -24 43 -47 14 -23 34 -44 43 -47 9 -4 19 -9 22 -12 3 -3
24 -21 47 -39 36 -28 55 -34 129 -43 47 -6 95 -9 105 -6 11 3 23 -1 28 -10 10
-19 124 -42 169 -35 20 2 42 -2 57 -12 28 -18 62 -21 67 -5 4 12 58 -9 58 -23
0 -10 34 -11 43 -1 12 11 85 14 92 3 4 -7 12 -7 26 0 15 9 24 6 45 -15 30 -30
39 -27 54 20 11 32 30 48 30 25 0 -5 5 -10 11 -10 8 0 8 4 -1 15 -16 19 -3 40
16 24 14 -11 53 -4 41 8 -10 9 12 43 27 43 8 0 30 18 50 40 20 22 40 40 46 40
5 0 14 9 20 21 10 17 14 18 27 7 14 -11 17 -11 21 0 8 25 63 67 95 74 18 3 33
5 35 4 1 -2 4 -24 5 -48 1 -29 6 -44 13 -41 7 3 12 -5 12 -19 0 -13 2 -44 6
-70 6 -40 4 -50 -14 -68 -24 -24 -27 -38 -4 -19 14 11 18 10 30 -5 12 -17 14
-18 20 -2 3 9 4 27 2 41 -3 13 -2 22 2 20 10 -6 16 29 19 111 3 94 38 416 52
486 8 36 17 58 26 58 7 0 13 7 13 15 0 8 11 22 25 31 15 10 25 26 25 40 0 17
4 22 15 18 16 -7 21 11 6 20 -11 7 -2 46 10 46 5 0 9 12 9 26 0 14 6 38 14 52
27 54 46 103 46 123 0 11 3 18 8 16 4 -3 8 14 9 37 3 55 34 179 46 187 5 4 28
10 51 14 36 6 39 8 23 19 -9 7 -28 11 -42 8 -19 -3 -27 1 -34 21 -6 14 -8 36
-6 49 3 13 9 47 15 77 5 30 14 59 20 65 5 7 6 24 1 42 -5 19 -4 38 6 57 7 15
12 35 11 44 -2 10 8 22 23 30 36 18 52 39 45 59 -6 15 -8 15 -26 -1 -36 -32
-50 -13 -44 57 8 98 11 107 33 101 26 -7 33 9 20 46 -9 24 -8 39 2 63 7 18 12
46 11 62 -3 31 -2 31 16 11 24 -25 62 -119 63 -154 0 -14 4 -34 8 -44 6 -17 8
-17 18 5 27 56 35 91 42 187 5 65 13 106 21 111 8 5 10 21 6 51 -12 84 -21
251 -13 256 4 2 5 9 2 14 -4 5 -3 9 2 9 4 0 9 15 11 33 2 30 8 65 12 77 1 3 3
21 4 40 2 19 8 60 15 90 18 80 23 112 23 138 0 12 3 22 8 22 4 0 6 22 6 50 -1
27 0 47 3 44 9 -8 31 58 31 93 0 20 4 32 10 28 6 -3 10 -1 10 4 0 6 -4 11 -10
11 -5 0 -10 7 -10 15 0 8 4 15 10 15 13 0 4 184 -9 188 -6 2 -11 10 -11 18 0
8 -5 14 -11 14 -5 0 -7 5 -4 10 3 6 -1 13 -9 16 -9 3 -13 10 -10 15 3 5 -3 9
-13 10 -16 0 -16 1 2 9 11 5 16 9 11 9 -5 1 -3 8 4 16 9 11 9 15 1 15 -7 0 -9
5 -5 11 10 17 15 70 10 94 -6 24 -57 51 -111 59 -22 3 -41 10 -43 16 -2 5 -11
10 -19 10 -9 0 -13 6 -9 15 3 8 1 15 -4 15 -5 0 -12 9 -15 20 -4 11 -10 18
-15 15 -5 -3 -12 0 -16 6 -4 8 -3 9 4 5 7 -4 12 -2 12 4 0 6 -7 13 -15 16 -8
4 -12 10 -9 15 3 5 0 9 -5 9 -6 0 -11 8 -11 19 0 10 -10 34 -23 52 -13 19 -22
40 -19 47 2 7 -2 12 -10 12 -11 0 -11 2 1 9 9 6 10 11 2 15 -6 4 -11 18 -11
31 0 13 -11 37 -25 54 -25 29 -25 30 -7 40 28 15 33 37 17 74 -7 17 -16 44
-19 59 -5 21 -14 29 -41 34 -19 3 -35 10 -35 14 0 17 -57 44 -117 55 -34 6
-60 8 -58 4 3 -4 -4 -5 -15 -2 -13 3 -22 17 -26 40 -8 42 -66 105 -139 149
-50 31 -115 58 -115 48 0 -3 -7 2 -16 11 -9 9 -22 14 -30 11 -7 -3 -14 0 -16
5 -2 6 -31 11 -65 13 -34 1 -69 8 -77 15 -8 7 -19 10 -24 7 -5 -3 -7 6 -4 19
4 23 2 25 -37 25 -27 0 -47 -6 -60 -19 -17 -17 -35 -20 -125 -20 -77 0 -106 3
-106 12 0 8 -4 7 -10 -3 -7 -11 -10 -11 -10 -2 0 7 -4 10 -10 7 -5 -3 -10 -2
-10 4 0 5 6 12 13 14 6 3 -151 6 -350 6 l-361 1 -31 -55z m509 -1027 c100 -28
350 -51 490 -45 15 1 24 -4 23 -11 -4 -15 14 -16 19 0 3 9 15 9 49 0 24 -7 64
-14 89 -16 25 -2 66 -15 93 -29 26 -14 47 -24 47 -22 0 2 30 -26 68 -63 68
-68 108 -96 122 -87 13 8 40 -6 40 -20 0 -6 9 -20 20 -30 11 -10 20 -24 20
-32 0 -8 5 -11 10 -8 6 3 10 16 10 29 0 31 11 39 26 18 16 -20 18 -62 4 -62
-5 0 -10 -7 -10 -15 0 -8 5 -15 10 -15 6 0 10 5 10 11 0 5 5 7 10 4 6 -3 10
-13 10 -21 0 -8 -4 -13 -8 -10 -4 2 -14 1 -22 -4 -12 -7 -9 -11 10 -19 14 -5
19 -10 12 -10 -9 -1 -11 -8 -7 -20 3 -11 1 -22 -5 -26 -7 -4 -6 -13 2 -28 13
-25 14 -22 -4 -50 -8 -12 -18 -31 -21 -42 -6 -17 -4 -17 13 4 15 17 20 19 20
8 0 -9 -9 -22 -20 -30 -15 -11 -18 -19 -11 -43 4 -16 5 -41 0 -55 -4 -15 -3
-33 2 -40 13 -21 11 -29 -8 -22 -13 5 -15 3 -9 -13 6 -15 5 -17 -5 -6 -7 6
-19 12 -26 12 -8 0 -13 -6 -11 -12 4 -16 -10 -18 -41 -6 -16 6 -34 5 -50 -2
-14 -5 -38 -11 -53 -12 -16 -1 -28 -5 -28 -8 0 -3 -33 -6 -72 -7 -40 -2 -86
-7 -103 -13 -16 -5 -48 -12 -70 -15 -89 -12 -145 -38 -193 -90 -61 -66 -85
-103 -78 -122 4 -9 2 -21 -3 -27 -16 -19 -18 -158 -3 -163 6 -3 12 -11 12 -19
0 -17 10 -17 33 0 10 8 27 12 37 9 15 -4 18 -11 14 -30 -4 -16 -2 -28 7 -34
19 -12 99 -11 99 1 0 6 -4 10 -10 10 -18 0 -10 31 15 55 31 32 55 32 55 1 0
-39 39 -76 87 -83 72 -10 106 2 128 45 10 20 20 38 21 40 0 1 8 0 17 -3 19 -8
16 -34 -6 -50 -21 -15 -22 -29 -3 -22 8 3 16 1 18 -4 2 -6 28 -13 58 -15 30
-3 60 -11 65 -18 6 -8 16 -10 25 -5 8 4 27 10 42 13 14 3 39 17 55 30 24 21
28 30 25 60 -3 29 -1 36 13 36 12 0 15 5 10 20 -4 14 -2 20 9 20 8 0 18 -9 21
-20 13 -41 46 -15 52 42 6 49 26 84 43 73 7 -4 10 -18 7 -32 -2 -13 1 -30 8
-36 23 -24 29 -327 6 -313 -4 3 -5 -65 -4 -150 3 -116 -1 -170 -12 -215 -12
-47 -13 -64 -4 -75 6 -8 7 -14 2 -14 -5 0 -16 -18 -23 -41 -11 -31 -11 -42 -2
-48 14 -8 12 -52 -2 -63 -6 -4 -5 -17 2 -33 10 -22 10 -32 -2 -55 -7 -15 -12
-47 -10 -69 2 -23 -1 -41 -6 -41 -6 0 -10 -13 -10 -30 0 -16 -4 -30 -9 -30
-12 0 -31 -56 -31 -92 0 -15 -9 -45 -20 -65 -11 -21 -20 -46 -20 -55 0 -10 -4
-18 -10 -18 -5 0 -10 -7 -10 -15 0 -8 -4 -15 -10 -15 -5 0 -8 -14 -6 -31 3
-23 0 -29 -11 -25 -20 8 -43 -18 -43 -48 0 -20 -5 -26 -21 -26 -11 0 -18 4
-14 9 3 6 -3 9 -13 8 -14 -1 -17 -7 -14 -29 5 -32 -12 -37 -40 -11 -22 19 -52
27 -41 10 3 -6 7 -23 8 -39 1 -21 -3 -28 -17 -28 -10 0 -18 -7 -18 -15 0 -8 8
-15 18 -15 14 0 14 -2 3 -9 -8 -5 -24 -6 -37 -1 -19 8 -21 6 -16 -12 3 -14 1
-19 -6 -14 -7 4 -12 2 -12 -4 0 -6 -7 -18 -16 -27 -12 -13 -18 -13 -27 -3 -9
10 -9 14 1 17 17 7 15 43 -3 43 -8 0 -14 -6 -13 -12 2 -9 -9 -13 -33 -12 -30
1 -39 -4 -60 -34 -17 -25 -20 -37 -11 -40 18 -6 15 -22 -5 -22 -15 -1 -13 -5
10 -25 30 -27 35 -40 11 -31 -13 5 -15 1 -12 -19 3 -14 1 -25 -4 -25 -5 0 -6
-4 -3 -10 3 -5 1 -10 -5 -10 -6 0 -8 -10 -4 -26 6 -23 4 -25 -15 -19 -15 4
-21 2 -21 -8 0 -16 -24 -30 -34 -20 -3 4 -6 19 -6 35 0 18 -5 28 -15 28 -8 0
-15 -5 -15 -11 0 -6 -9 -9 -20 -6 -11 3 -20 1 -20 -4 0 -15 -25 -10 -46 9 -15
15 -22 16 -31 7 -7 -7 -9 -22 -6 -33 4 -17 -1 -20 -39 -24 -23 -3 -49 0 -56 5
-7 5 -15 7 -19 3 -3 -3 -1 -6 6 -6 9 0 11 -8 6 -27 -4 -16 -7 -40 -6 -56 1
-18 -4 -27 -14 -27 -10 0 -15 10 -15 33 -1 36 -19 66 -37 60 -7 -3 -13 0 -13
6 0 6 -5 11 -11 11 -10 0 -8 -20 6 -70 3 -8 -4 -21 -14 -27 -18 -11 -19 -10
-14 22 4 24 2 35 -6 35 -8 0 -10 8 -7 23 6 20 5 20 -6 -2 -10 -19 -10 -25 0
-29 16 -5 15 -24 -3 -48 -13 -16 -16 -17 -25 -4 -5 8 -10 26 -10 40 0 19 -3
21 -9 11 -5 -8 -8 -19 -6 -25 2 -6 6 -23 9 -39 l7 -28 -22 22 -22 22 -9 -23
c-8 -22 -9 -23 -23 -4 -13 18 -14 18 -20 2 -4 -10 -13 -18 -21 -18 -17 0 -18
-16 -1 -24 6 -3 -1 -2 -17 1 -39 8 -65 31 -59 53 3 10 1 26 -4 35 -8 14 -11
12 -23 -10 -13 -24 -40 -35 -40 -15 0 6 7 10 15 10 8 0 15 5 15 11 0 5 -5 7
-10 4 -6 -3 -17 1 -26 9 -14 15 -14 16 2 16 16 0 16 1 -1 20 -18 20 -55 28
-55 12 0 -4 6 -14 13 -21 8 -10 8 -12 0 -7 -6 3 -16 -2 -22 -11 -5 -10 -13
-14 -17 -10 -4 4 0 21 9 37 10 17 13 31 8 35 -11 6 -31 -25 -31 -48 0 -8 -9
-22 -20 -32 -19 -17 -20 -17 -20 -1 0 9 -4 14 -10 11 -16 -10 -11 12 6 30 9 9
14 19 10 22 -3 4 -15 -3 -26 -15 -11 -12 -35 -29 -52 -38 l-32 -17 17 26 c16
25 16 26 -6 23 -13 -1 -28 -6 -35 -10 -7 -4 -12 -5 -12 -2 0 2 -3 11 -6 19 -4
10 5 16 29 21 29 5 34 10 30 27 -4 13 -11 18 -23 14 -12 -4 -22 1 -29 12 -6
10 -11 12 -11 6 0 -7 -8 -13 -17 -14 -15 0 -15 -2 2 -9 11 -5 16 -9 10 -10
-52 -7 -76 -6 -82 3 -4 6 0 8 9 4 9 -3 21 0 27 6 19 19 12 27 -16 16 -18 -7
-30 -6 -37 1 -7 7 -5 10 7 10 21 0 22 26 3 46 -19 19 -40 18 -32 -1 4 -11 -1
-15 -18 -15 -32 0 -56 10 -56 22 0 6 7 7 16 4 14 -6 14 -3 -2 21 -25 39 -40
53 -57 53 -8 0 -22 18 -32 41 -17 36 -20 39 -31 24 -16 -21 -25 1 -13 33 14
38 -1 24 -20 -19 -20 -43 -36 -39 -25 7 6 22 4 25 -12 22 -11 -2 -18 -10 -16
-16 3 -16 -6 -15 -25 4 -15 14 -14 15 3 12 28 -5 28 25 -1 39 -23 10 -25 9
-25 -10 0 -18 -2 -19 -10 -7 -9 13 -11 13 -20 0 -13 -20 -13 -4 1 22 7 12 7
18 1 14 -6 -3 -15 6 -20 21 -6 16 -11 22 -11 16 -1 -7 -10 -13 -20 -13 -17 0
-18 4 -11 30 7 24 6 30 -7 30 -12 0 -13 3 -4 14 9 11 6 12 -14 8 -18 -3 -25 0
-25 11 0 8 -7 18 -16 21 -8 3 -14 14 -12 23 3 10 -4 35 -14 55 -17 36 -17 37
2 43 11 4 20 11 20 16 0 13 -18 11 -23 -3 -8 -23 -17 -2 -24 51 -3 28 -9 51
-13 51 -3 0 -5 15 -3 33 2 25 1 28 -6 12 -7 -18 -9 -17 -14 10 -7 32 -17 129
-22 205 -4 56 -19 95 -40 104 -9 3 -13 10 -10 16 4 6 10 8 15 5 16 -10 16 20
-1 81 -10 35 -20 102 -23 151 -3 48 -8 99 -11 113 -15 75 -15 204 -1 308 9 62
16 143 16 180 0 146 39 355 84 455 36 80 85 244 79 267 -3 11 -2 28 2 37 4 10
8 50 9 88 2 71 17 126 48 180 18 30 18 30 19 5 0 -21 3 -18 19 18 22 49 29 53
23 15 -3 -26 -3 -27 6 -5 6 12 15 22 20 22 5 0 12 11 15 25 4 14 13 25 21 25
9 0 15 9 15 21 0 14 5 19 14 16 8 -3 17 1 20 9 4 10 13 13 25 9 11 -3 22 -2
25 4 3 5 15 7 26 4 11 -3 20 -1 20 4 0 6 41 16 90 24 50 7 90 15 90 18 0 3 37
7 83 9 123 5 231 12 235 17 6 6 90 -5 132 -17z m930 -1043 c10 3 21 1 25 -5 4
-7 18 -9 30 -6 13 3 27 2 30 -4 3 -5 17 -10 31 -10 13 0 24 -5 24 -10 0 -6 12
-15 26 -21 15 -5 24 -12 21 -15 -9 -9 19 -34 37 -34 9 0 16 -7 16 -15 0 -19
-25 -19 -115 1 -38 8 -124 22 -190 30 -136 17 -162 30 -118 60 36 25 122 43
146 32 10 -5 26 -6 37 -3z"/>
<path d="M1601 3062 c-23 -9 -42 -21 -41 -26 1 -5 -15 -19 -35 -31 -78 -48
-119 -105 -75 -105 12 0 20 -7 20 -16 0 -13 7 -15 43 -9 23 4 49 11 58 16 9 5
66 11 127 15 94 5 121 2 191 -16 65 -18 85 -28 102 -52 12 -16 19 -32 15 -35
-3 -3 -49 -7 -103 -10 -117 -5 -198 -23 -288 -64 -52 -23 -69 -37 -80 -62 -12
-29 -11 -34 5 -49 10 -9 20 -21 21 -26 2 -6 31 -14 64 -19 65 -9 94 4 87 39
-3 17 14 32 38 33 8 0 22 -16 31 -35 23 -51 39 -60 114 -62 59 -2 69 0 86 21
10 12 21 38 25 57 8 42 34 45 63 8 26 -33 27 -50 4 -59 -16 -6 -14 -8 9 -21
21 -11 38 -12 79 -4 28 6 54 10 56 10 3 0 2 14 -2 30 -5 23 -3 30 8 30 8 0 17
7 21 15 3 8 12 15 19 15 19 0 29 53 16 86 -7 21 -6 31 7 45 11 12 14 27 10 43
-4 15 -1 26 7 29 18 6 -100 115 -148 136 -80 35 -218 64 -310 66 -50 0 -95 4
-102 8 -6 4 -22 7 -34 6 -13 0 -33 2 -44 5 -11 3 -40 -2 -64 -12z"/>
<path d="M2674 1925 c-3 -8 -3 -19 1 -25 5 -8 -8 -15 -17 -8 -2 1 -13 -4 -26
-11 -12 -7 -35 -14 -50 -16 -15 -3 -48 -9 -74 -15 -44 -11 -49 -10 -89 19 -53
39 -102 52 -154 41 -91 -19 -106 -23 -103 -31 2 -4 28 -34 58 -65 30 -32 48
-55 39 -52 -22 8 -62 -20 -55 -38 3 -8 0 -14 -7 -14 -7 0 -5 -5 5 -10 16 -10
17 -21 3 -53 -7 -16 -9 -15 -21 9 -8 14 -14 33 -14 40 0 20 -17 17 -40 -6 -11
-11 -20 -17 -20 -12 0 4 -4 1 -9 -7 -12 -19 -88 -22 -121 -5 -36 17 -81 6
-111 -29 -15 -16 -31 -27 -37 -23 -17 10 -39 -43 -43 -103 -3 -41 0 -55 11
-61 8 -4 30 -14 48 -23 19 -10 52 -20 75 -24 34 -5 139 -46 181 -71 5 -3 7 2
3 10 -4 11 0 15 11 13 9 -1 16 -8 14 -15 -2 -8 5 -9 20 -4 13 4 39 8 58 9 19
1 39 3 44 4 4 0 5 13 2 27 -15 58 16 78 80 54 20 -8 29 -8 34 1 5 7 30 9 76 5
86 -7 77 -7 152 0 41 4 67 2 76 -5 11 -9 19 -9 34 0 26 16 52 5 52 -23 -1 -37
-22 -57 -55 -51 -24 4 -28 3 -18 -7 6 -7 31 -13 55 -15 51 -2 98 -14 98 -25 0
-4 -11 -16 -25 -26 -49 -37 -21 -42 49 -8 16 8 33 14 38 14 5 0 27 19 47 42
36 39 40 41 72 32 31 -9 35 -7 67 28 18 20 31 41 28 46 -3 6 3 12 14 15 11 3
20 1 20 -3 0 -5 8 -10 18 -12 13 -3 20 7 27 37 11 41 4 76 -22 103 -7 7 -13
20 -13 28 0 15 -77 94 -92 94 -5 0 -6 -4 -3 -10 3 -5 -1 -10 -9 -10 -8 0 -18
5 -21 10 -4 7 -11 7 -18 2 -18 -14 -87 21 -87 45 0 6 -8 18 -17 25 -23 17 -27
52 -8 68 11 9 12 17 5 30 -6 10 -7 26 -3 36 5 15 2 16 -28 10 -23 -4 -53 1
-92 14 -67 24 -106 26 -113 5z m-359 -285 c10 -12 25 -18 32 -16 8 3 22 0 33
-6 14 -9 27 -9 58 1 21 7 48 10 59 7 12 -4 27 1 40 13 21 20 21 19 44 -5 22
-23 46 -34 34 -15 -3 6 8 8 29 4 18 -3 36 -1 39 5 8 12 99 -4 154 -29 24 -10
49 -19 57 -19 7 0 19 -7 27 -16 7 -9 21 -13 34 -10 20 5 52 -11 83 -41 7 -7
17 -13 22 -13 5 0 14 -9 20 -20 10 -19 9 -20 -32 -14 -70 10 -151 35 -180 55
-21 16 -32 18 -47 9 -30 -16 -64 -13 -57 5 5 15 -7 19 -49 16 -17 -2 -17 0 -5
8 13 9 13 11 -2 11 -11 0 -18 -8 -18 -20 0 -11 -4 -20 -10 -20 -5 0 -10 7 -10
15 0 18 -16 20 -23 3 -2 -7 -26 -19 -53 -26 -27 -7 -56 -17 -64 -21 -8 -5 -24
-5 -35 -1 -36 13 -296 3 -365 -14 -36 -9 -77 -16 -92 -16 -32 0 -48 19 -22 26
11 3 26 20 34 37 9 19 21 31 31 29 20 -3 44 23 30 32 -6 4 -8 13 -5 20 5 12
58 13 91 1 6 -2 27 7 45 20 41 29 50 30 73 5z"/>
<path d="M2459 1120 c-42 -4 -82 -11 -88 -14 -14 -9 -14 -43 -1 -51 17 -10 12
-38 -6 -31 -10 4 -14 1 -11 -6 2 -7 12 -12 21 -12 9 1 16 -2 16 -6 0 -16 63
-53 102 -60 34 -7 41 -5 45 10 4 16 9 17 35 8 23 -8 32 -8 38 3 7 10 11 10 24
0 11 -10 19 -10 33 -1 17 11 17 11 -1 6 -13 -5 -17 -2 -12 9 3 8 9 22 12 30 4
9 0 15 -9 15 -9 0 -19 5 -23 11 -4 7 0 9 12 5 11 -3 29 3 44 14 18 14 21 20 9
20 -9 0 -26 9 -39 20 -13 11 -31 20 -41 20 -10 0 -21 5 -24 10 -7 11 -22 11
-136 0z"/>
<path d="M860 2578 c-28 -47 -39 -113 -31 -198 4 -54 12 -83 27 -102 l21 -27
1 37 c2 51 52 261 64 268 12 7 -30 54 -49 54 -7 0 -22 -14 -33 -32z"/>
<path d="M3390 357 c0 -2 39 -36 88 -75 106 -86 140 -141 137 -227 -2 -53 -1
-55 24 -55 24 0 26 4 29 50 5 79 -21 149 -75 208 -7 7 -13 22 -13 32 0 20 -11
25 -75 36 -22 4 -52 13 -67 20 -25 13 -48 18 -48 11z"/>
</g>
</svg>
